<svg width="426" height="216" viewBox="0 0 426 216" fill="none" xmlns="http://www.w3.org/2000/svg">
<path d="M29.3437 23.8677C29.3437 25.3307 29.3437 26.7937 29.3437 28.2566C29.3437 40.2787 34.5569 54.7132 38.0659 66.1177C39.8382 71.8775 44.0898 78.1889 47.6771 83.0344C57.8212 96.7365 73.2403 96.2859 87.5104 89.8677C104.885 82.0533 109.889 61.1364 111.233 43.8122C112.249 30.7028 110.844 -8.78106 110.844 4.36773C110.844 24.0368 117.06 43.9113 121.233 62.9788C125.167 80.9573 128.066 99.4763 133.455 117.09C138.161 132.472 146.573 146.463 151.094 161.868C154.427 173.225 159.259 184.853 156.733 196.923C154.117 209.42 144.472 215.29 132.038 213.479C115.176 211.023 106.827 197.179 100.51 182.757C93.4659 166.672 101.384 148.829 101.955 132.09C101.977 131.44 102.443 119.922 101.538 120.479C99.2475 121.888 97.5866 124.39 95.2326 125.868C85.4728 131.996 65.409 130.043 55.2326 126.479C47.6245 123.814 41.2402 118.025 34.5937 113.618C28.1464 109.342 23.2394 104.654 18.3993 98.6455C8.45227 86.2975 4.37776 73.4263 3.09373 57.59C2.33127 48.1863 -1.34196 29.9001 11.7048 28.1733C15.0323 27.7329 20.9895 25.0494 23.8715 27.4511C31.8129 34.0689 35.1353 48.9851 38.3159 58.34C43.8789 74.7017 43.5248 98.0592 64.9548 99.7566C96.5132 102.256 109.691 75.7618 108.788 48.0066C108.552 40.7446 106.993 33.6916 106.455 26.4788C106.301 24.416 106.344 19.8843 106.344 24.59C106.344 33.8468 110.481 43.3915 111.233 52.7566C111.722 58.8534 112.148 67.124 114.733 72.8677C116.917 77.7215 114.82 85.3189 117.872 89.8955C127.194 103.879 130.241 121.432 139.733 135.451C148.314 148.125 158.607 162.174 172.816 168.812C195.317 179.324 226.356 184.314 246.455 165.701C255.027 157.762 260.271 144.856 266.205 134.923C272.702 124.048 276.896 111.244 278.899 98.7566C283.039 72.9578 272.043 54.9351 254.955 36.7566C240.252 21.1154 225.092 11.0272 203.399 10.8677C188.11 10.7553 176.509 13.5004 163.677 22.2566C153.274 29.3552 146.137 38.9609 138.955 49.09C128.818 63.386 126.468 78.0942 126.566 95.3677C126.793 135.274 153.877 186.462 201.149 173.479C219.895 168.33 228.114 149.397 235.594 133.423C240.767 122.375 249.417 103.112 245.455 90.59C242.201 80.309 237.093 72.6011 227.899 67.2844C218.109 61.6226 206.959 57.28 195.566 56.4788C181.387 55.4819 169.436 59.2243 157.455 66.8677C143.627 75.6888 138.342 98.2984 140.899 113.701C142.464 123.123 147.884 132.167 151.622 140.868C154.997 148.726 158.991 156.426 165.233 162.423C176.555 173.302 189.322 174.368 204.316 174.368C212.05 174.368 220.421 175.179 228.01 173.423C236.634 171.428 243.916 164.7 249.538 158.201C262.19 143.576 268.055 121.451 272.066 102.84C276.054 84.334 281.95 66.2286 287.788 48.2288C289.617 42.5886 292.218 36.313 292.733 30.3677C293.204 24.9199 287.933 37.0769 287.594 37.9511C277.451 64.0967 273.952 91.3432 272.677 119.284C271.643 141.948 274.024 162.175 294.788 174.534C311.922 184.733 341.104 188.47 358.233 177.201C381.25 162.058 396.363 136.131 408.955 112.312C418.237 94.7547 433.703 59.8696 416.233 42.59C404.671 31.1548 389.947 36.9867 381.121 48.8677C366.346 68.7577 365.452 94.9789 355.121 116.868C351.242 125.088 345.451 133.525 337.038 137.618C322.928 144.482 312.446 136.154 309.455 122.257C304.32 98.3991 304.798 78.6398 314.566 56.4233C321.303 41.1 328.147 28.1795 319.538 12.3677C310.82 -3.64551 295.578 5.99721 290.177 19.34C285.748 30.2829 282.136 41.7175 280.344 53.3677" stroke="#F1E6E6" stroke-width="3" stroke-linecap="round"/>
</svg>
