<svg width="668" height="228" viewBox="0 0 668 228" fill="none" xmlns="http://www.w3.org/2000/svg">
<path d="M131.2 21.3737C131.092 20.5065 129.715 19.1883 129.2 18.4848C127.128 15.6492 119.798 14.5101 116.812 13.6515C111.882 12.2341 106.709 11.3698 101.589 10.9848C95.6706 10.5398 88.7296 8.71146 82.8671 10.3182C70.1876 13.7933 59.3387 25.5734 51.3116 35.2904C41.8878 46.6981 32.8766 59.3657 27.3671 73.1793C23.0328 84.0465 20.016 95.4451 16.7005 106.652C13.7459 116.638 10.2198 127.301 9.53381 137.763C8.19089 158.242 16.7493 178.094 33.6449 189.429C50.8702 200.986 73.3449 206.577 93.8671 205.902C124.172 204.905 165.888 175.209 164.978 141.929C164.811 135.812 160.315 130.676 156.978 125.874C152.82 119.889 148.456 114.265 142.589 109.874C130.648 100.935 120.455 96.3811 105.7 94.346C99.3068 93.4641 93.1054 92.8737 86.6449 92.8737C81.5643 92.8737 75.0334 91.7862 70.2838 94.0126C65.7207 96.1516 43.7827 113.598 51.9227 118.374C58.791 122.403 70.1594 118.762 77.5894 118.263C84.8703 117.774 92.8867 116.048 100.145 116.985C108.673 118.085 119.397 128.374 119.978 136.874C121.178 154.42 109.08 171.69 90.9783 173.04C79.3866 173.905 65.9666 171.505 55.9783 165.429C41.8654 156.845 35.5614 144.887 34.2005 128.429C31.3492 93.9503 61.5355 61.6431 94.6727 57.4015C107.681 55.7365 130.559 60.1475 139.312 47.2348C145.941 37.4546 139.651 25.8123 132.2 18.7071C115.326 2.61503 79.8355 6.57776 62.5894 19.7071C36.7425 39.3841 25.5603 67.4569 14.6449 97.096C9.04043 112.314 2.61527 127.088 2.03381 143.54C1.35007 162.886 11.0665 180.395 28.506 189.179C53.6668 201.852 87.3311 207.805 114.839 200.735C122.54 198.756 133.77 196.997 139.784 191.179C149.389 181.887 154.567 167.194 160.7 155.54C162.456 152.204 161.787 154.872 161.589 157.096C161.099 162.628 159.455 167.995 158.923 173.54C158.563 177.285 157.866 184.051 159.978 187.374C162.217 190.896 170.658 191.911 173.756 192.29C186.527 193.854 194.118 189.463 200.284 178.374C212.157 157.019 210.87 133.725 209.95 110.235C209.566 100.4 208.267 89.6098 211.645 80.1237C215.607 68.9956 227.818 65.6991 237.256 72.8182C258.648 88.9538 257.93 124.493 255.589 147.985C254.197 161.956 244.399 209.598 274.562 198.902C286.705 194.595 292.872 179.703 297.784 168.957C305.6 151.856 308.492 134.095 308.395 115.318C308.299 96.7883 305.245 78.3808 301.45 60.2904C299.026 48.7308 295.755 37.9076 289.617 27.7348C274.455 2.60579 244.849 0.92108 218.7 2.37375C211.642 2.7659 203.27 10.5839 199.006 15.4571C192.549 22.8364 188.728 32.1268 184.145 40.6515C177.96 52.155 174.298 63.8332 172.2 76.7071C169.188 95.2 168.2 113.964 168.2 132.679C168.2 136.911 168.507 142.518 167.395 146.596C166.535 149.751 164.7 157.864 164.7 150.318C164.7 143.644 162.381 149.394 160.923 152.179C157.528 158.66 156.7 166.138 156.7 173.318C156.7 187.66 169.156 191.472 181.589 190.152C203.019 187.876 207.694 165.154 209.7 147.096C211.774 128.431 208.279 109.886 207.756 91.2071C207.468 80.9159 207.356 71.9107 219.228 70.6515C229.108 69.6036 235.535 74.056 242.089 81.4293C254.408 95.2875 259.019 113.731 254.978 131.624C252.955 140.584 249.866 149.466 249.2 158.929C248.488 169.05 245.079 186.848 253.478 194.54C260.968 201.4 273.006 200.891 280.145 194.402C293.405 182.347 299.745 164.902 302.145 147.568C303.166 140.192 304.7 117.927 304.7 125.374C304.7 131.387 304.7 137.961 304.7 144.152C304.7 152.75 303.691 162.172 306.034 170.513C308.14 178.009 313.783 194.137 321.923 197.152C341.277 204.32 354.61 179.146 357.978 163.707C360.15 153.752 358.611 143.762 361.228 133.818C366.048 115.504 368.541 94.0049 388.589 86.8737C395.626 84.3709 404.23 83.3501 410.423 88.4293C415.819 92.8551 416.96 98.3174 417.812 104.985C419.646 119.341 420.216 133.819 420.923 148.263C421.923 168.702 423.658 208.211 451.812 207.874C460.66 207.768 463.63 200.535 466.812 193.263C467.365 191.997 468.778 192.374 469.95 192.374C472.051 192.374 474.537 193.305 475.7 193.374C477.747 193.494 478.174 193.566 478.2 191.429C478.339 180.311 479.7 169.235 479.7 158.124C479.7 152.321 477.708 163.635 477.423 164.985C476.062 171.417 476.068 177.87 475.617 184.402C475.022 193.032 470.184 199.121 465.534 206.096C458.736 216.293 464.026 199.357 465.145 195.985C471.803 175.923 479.7 155.011 479.7 133.596C479.7 119.854 478.533 105.01 480.312 91.3737C480.645 88.8173 481.218 85.7495 481.923 83.2626C483.912 76.2408 490.975 73.2162 495.756 68.3737C505.382 58.624 508.025 42.8282 498.562 32.0126C489.313 21.4429 477.261 20.8985 464.089 21.9848C448.7 23.254 439.009 38.4939 427.589 46.8737C419.132 53.0802 409.439 55.2513 399.034 53.596C383.473 51.1203 375.672 38.3968 363.478 30.0404C356.545 25.289 345.382 18.6357 336.478 20.2071C329.486 21.4411 324.801 30.174 322.339 35.9293C317.713 46.7441 316.913 58.2769 315.173 69.7626C313.539 80.5428 311.991 91.3092 310.812 102.152C309.65 112.829 310.129 124.488 306.589 134.763C304.094 142.006 301.655 149.52 301.784 157.263C302.03 172.045 306.302 195.971 325.228 195.124C342.97 194.329 354.534 175.36 356.312 159.596C358.835 137.211 354.467 113.994 370.284 95.5404C379.375 84.9336 391.963 81.7119 404.867 86.8737C423.402 94.2876 420.7 126.8 420.7 142.707C420.7 164.666 418.071 202.013 446.339 208.818C476.887 216.172 480.78 174.107 480.617 154.04C480.531 143.4 479.486 133.002 476.006 122.902C473.278 114.985 472.051 107.345 472.312 98.9293C472.74 85.1126 477.002 74.0725 486.7 64.3737C490.788 60.2861 495.025 56.4013 499.423 52.6515C501.449 50.9238 508.046 47.3507 508.728 44.6237C509.055 43.315 506.788 46.4988 505.812 47.4293C503.468 49.6619 501.101 51.836 498.923 54.2348C493.18 60.5596 488.23 66.8782 484.839 74.7904C479.857 86.4164 476.78 98.6758 474.034 110.985C472.921 115.974 470.196 121.089 473.534 113.429C488.364 79.3896 503.574 40.7255 540.062 24.3182C554.026 18.0387 574.321 19.7307 589.006 23.096C597.201 24.9739 606.703 24.2751 615.089 24.3737C620.383 24.436 625.667 23.9776 630.812 25.596C637.199 27.6051 646.331 31.097 647.756 38.596C649.493 47.7357 644.312 57.2998 635.951 61.0404C605.068 74.8561 558.425 38.679 532.978 69.9848C523.572 81.5572 526.72 104.032 543.978 105.485C559.535 106.794 576.255 100.56 591.645 98.5404C602.509 97.1147 620.203 90.7344 630.562 96.7071C636.824 100.318 638.663 108.628 635.562 114.874C629.211 127.663 613.57 134.101 600.756 138.068C590.161 141.349 579.02 142.447 568.006 143.318C557.85 144.121 547.893 142.826 539.867 150.374C530.417 159.261 541.925 170.061 549.478 176.04C563.207 186.909 580.488 186.192 595.978 179.929C609.435 174.489 621.463 168.053 636.478 169.318C644.323 169.979 655.748 173.727 661.645 179.179C678.954 195.186 640.192 218.383 629.312 222.04C606.185 229.814 584.919 224.595 561.589 223.374C550.58 222.797 539.554 222.874 528.534 222.874C519.832 222.874 510.877 223.498 502.478 220.763C492.773 217.602 484.24 211.118 478.867 202.374C470.402 188.599 472.914 169.133 472.478 153.679C471.921 133.952 475.914 115.082 479.728 95.8182C480.879 90.0088 482.762 85.0629 486.2 80.3737" stroke="#F4F0EB" stroke-width="3" stroke-linecap="round"/>
</svg>
