<svg width="705" height="252" viewBox="0 0 705 252" fill="none" xmlns="http://www.w3.org/2000/svg">
<path d="M13.2646 32.2256C13.2646 33.6793 12.3296 34.9077 12.2646 36.3367C11.4367 54.551 10.9388 72.8973 8.12575 90.9478C6.90367 98.7894 4.36416 106.318 3.51464 114.226C2.29058 125.619 2.23631 137.002 2.26464 148.448C2.31051 166.979 3.18159 187.814 13.1257 204.087C21.4065 217.637 42.735 223.194 57.4869 225.114C66.441 226.28 75.4536 226.248 84.4591 225.976C93.8312 225.692 102.937 226.952 112.265 227.114C129.725 227.419 146.788 220.441 150.848 201.948C154.887 183.546 146.022 169.268 128.487 163.948C113.814 159.496 100.372 163.007 86.2091 167.337C68.1437 172.86 43.7297 175.763 39.4869 151.448C37.4027 139.504 41.5207 127.289 44.7369 115.948C49.7211 98.3717 57.1572 81.534 61.9313 63.9478C67.1901 44.576 65.6915 15.5808 45.7646 4.58669C29.5201 -4.37584 14.8025 8.80346 9.09797 23.4478C5.85237 31.7798 3.2431 42.6459 4.9313 51.6145C6.90974 62.1249 9.65352 72.066 9.65352 82.8922C9.65352 90.3159 8.16879 97.5526 7.29241 104.892C6.12559 114.664 6.06144 124.517 4.76464 134.281C2.86078 148.616 -0.176755 167.049 3.9313 181.17C8.07312 195.408 15.7073 203.442 28.5702 210.198C42.8619 217.705 61.3023 220.895 77.1535 221.948C96.2416 223.216 114.38 219.436 133.154 216.837C135.752 216.477 138.2 217.128 140.709 217.726C156.305 221.439 173.32 221.731 189.265 221.503C203.042 221.307 218.503 218.311 230.598 211.503C240.614 205.866 250.024 195.863 257.431 187.114C273.452 168.195 284.744 141.653 281.542 116.614C280.133 105.594 276.683 97.2877 267.098 91.2811C256.487 84.6318 244.563 78.8207 231.765 79.0589C212.643 79.4149 189.785 91.8995 179.542 107.837C167.419 126.7 160.278 149.872 162.931 172.309C165.303 192.359 177.85 212.525 199.487 215.67C219.003 218.506 239.272 200.697 251.737 187.726C255.351 183.965 257.19 178.467 260.709 174.948C261.201 174.456 260.091 181.332 259.876 182.226C258.56 187.685 257.828 193.382 258.098 199.003C258.851 214.66 270.943 218.337 285.07 218.337C316.882 218.337 348.97 203.889 370.487 180.726C378.836 171.738 386.136 162.22 390.654 150.726C395.443 138.54 401.773 124.085 401.959 110.809C402.232 91.3299 379.128 75.7609 362.654 71.8645C349.766 68.8163 334.45 68.3924 322.154 73.7811C305.589 81.0406 289.218 96.5921 280.042 112.003C265.152 137.013 256.138 170.06 262.209 199.17C263.916 207.352 268.05 216.427 276.07 220.142C288.44 225.873 307.065 221.544 319.209 217.448C351.187 206.661 370.207 177.532 388.32 151.059C389.648 149.118 390.723 146.435 387.709 149.503C381.105 156.227 375.067 164.832 370.07 172.753C365.155 180.546 359.15 190.558 359.487 200.17C359.839 210.204 368.061 213.713 376.654 215.837C388.085 218.661 399.703 220.37 411.265 216.948C419.798 214.422 426.584 209.575 433.07 203.614C445.508 192.184 456.934 179.062 467.515 165.92C480.149 150.227 487.828 133.77 494.57 114.976C495.122 113.437 498.937 98.2359 500.876 100.476C509.732 110.706 514.657 124.33 518.376 137.114C524.564 158.387 528.555 182.266 517.709 202.837C504.348 228.179 472.613 232.316 446.931 231.67C430.024 231.245 416.74 222.685 401.154 217.726C398.073 216.745 395.243 216.565 391.931 215.948C387.704 215.16 383.459 214.175 379.32 213.003C375.578 211.944 390.438 200.339 391.876 199.003C402.518 189.114 413.397 178.939 423.376 168.392C441.85 148.867 456.483 124.019 467.959 99.8367C474.032 87.0407 479.175 73.6136 484.126 60.3367C485.67 56.1942 484.944 51.4255 486.376 47.5589C486.458 47.338 491.92 53.1607 492.209 53.4478C499.797 60.9934 507.974 67.7486 514.987 75.8922C541.198 106.331 564.064 151.529 551.765 192.614C541.366 227.35 501.638 246.028 468.209 249.726C445.87 252.196 422.013 246.361 401.487 237.837C387.002 231.822 378.479 222.384 367.792 211.698C367.787 211.692 366.219 209.441 366.959 210.392C372.102 217.004 383.912 222.285 390.987 225.726C443.272 251.157 504.486 243.113 560.598 242.003C585.562 241.509 611.079 243.523 635.959 241.837C653.14 240.672 671.75 231.183 684.82 220.226C694.321 212.261 697.239 202.05 687.098 193.226C670.909 179.139 652.256 185.249 634.098 190.948C622.973 194.44 606.819 199.609 595.32 195.087C586.152 191.481 583.933 180.14 590.959 173.42C598.235 166.461 609.343 164.252 618.904 162.614C626.785 161.265 646.65 163.977 648.598 152.614C650.561 141.165 630.553 135.925 622.876 134.892C615.938 133.959 583.872 138.089 584.681 125.948C585.641 111.558 613.707 110.315 623.348 110.614C642.881 111.221 662.671 119.556 682.265 116.114C693.59 114.125 704.085 106.138 702.431 93.3922C700.054 75.0756 672.607 63.0051 657.57 58.17C642.04 53.1765 624.757 52.2794 608.542 51.8367C590.166 51.3349 574.43 54.2178 560.654 67.3922C546.192 81.2217 545.51 106.145 547.376 124.698C549.395 144.781 553.55 163.227 549.265 183.226" stroke="#E4D5D5" stroke-width="3" stroke-linecap="round"/>
</svg>
