<svg width="226" height="392" viewBox="0 0 226 392" fill="none" xmlns="http://www.w3.org/2000/svg">
<path d="M201.5 15.5C200.667 15.5 199.833 15.5 199 15.5C198.398 15.5 197.796 15.5 197.194 15.5C190.125 15.5 172.524 17.3504 169.222 17.6111C137.019 20.1539 104.826 22.8309 72.6111 25.2222C52.2262 26.7354 32.1963 27.7274 12 31C9.19293 31.4548 0.684099 32 3.52778 32C6.67597 32 9.82057 32.4164 12.9722 32.4722C46.1443 33.0593 79.3131 27.7342 111.889 22.0833C132.062 18.5839 152.772 20.0983 173.111 21C181.998 21.394 191.001 21.3789 199.833 22.5278C202.557 22.882 208.314 22.7928 210.694 24.3333C215.654 27.5423 214.51 39.0806 213.722 43.3889C209.324 67.4472 192.017 89.29 175.444 106.611C155.601 127.351 120.179 150.017 90.2222 140.5C82.4173 138.021 75.1049 133.459 67.5 130.389C59.902 127.321 52.4864 124.3 46.1667 118.917C41.0608 114.567 37.3926 108.89 33.5 103.5C28.9368 97.1817 23.5494 91.2389 19.6111 84.5C14.3307 75.4646 12.5 65.9646 12.5 55.6111C12.5 49.6821 12.0921 43.7847 12 37.8889C11.9295 33.375 11.4676 32.3649 16.25 31.75C36.7141 29.1189 57.3539 24.7774 77.8889 23.25C94.8317 21.9898 112.116 22.6912 128.944 20.3889C141.924 18.6131 154.74 16.4684 167.861 15.7778C174.911 15.4067 185.753 13.5909 191.889 18.5C194.161 20.3178 193.14 26.544 192.917 29C192.588 32.6153 190.448 35.3924 188.667 38.4444C184.858 44.9687 181.849 51.8938 178.111 58.4444C173.527 66.4776 167.637 73.8316 161.806 80.9722C155.999 88.0817 150.791 95.6424 143.333 101.167C137.041 105.828 129.355 107.883 121.944 110.111C112.136 113.06 103.42 116.137 93.8056 111.639C79.0057 104.714 65.6661 93.7949 56.5278 80.2778C48.7623 68.7913 42.794 54.9374 33.9722 44.2778C29.2075 38.5203 19.8181 37.2158 16.5 29.75C15.5812 27.6827 12.9257 25.6812 11.5 23.8889C8.49606 20.1125 4.92871 16.0749 2.80556 11.75C-0.687713 4.63408 10.3745 7.49999 15.0556 7.49999C26.6592 7.49999 38.1193 7.84826 49.6111 6.02777C60.1765 4.35405 70.7988 2.99481 81.5 2.6111C112.173 1.51128 143.378 1.66685 173.833 5.99999C189.539 8.23461 207.912 9.82205 222.667 16.1111C227.118 18.0084 219.926 20.8031 218.194 20.9444C209.309 21.6698 199.669 21.4193 190.833 20.5C187.435 20.1464 183.744 18 180.5 18C178.555 18 190.561 18 192.333 18C195.867 18 217.071 15.7289 215.944 20.6389C214.607 26.467 214.543 32.5229 212.833 38.2778C210.634 45.683 206.383 52.7769 202.111 59.1667C190.929 75.8916 180.014 94.1819 166.278 108.833C160.723 114.759 156.1 121.15 148.5 124.528C145.097 126.04 140.963 127.935 138.389 130.611C135.743 133.363 131.4 133.88 127.944 135.25C117.017 139.583 103.317 139.435 92.1667 136.611C66.8768 130.206 37.3848 115.878 21.7222 94.0555C12.0317 80.5541 9.28209 66.9194 8.25 50.75C7.37697 37.0725 4.62802 23.9097 2.61111 10.3889C1.51411 3.03489 2.76869 2.6638 3.94444 10.2222C6.21852 24.8413 5.43895 39.6893 7.88889 54.3889C9.16728 62.0592 10.633 69.6943 11.75 77.3889C13.0138 86.0949 19.5307 91.9812 25.8889 97.5555C60.3716 127.787 104.812 147.834 150.222 152.889C159.827 153.958 169.704 155.389 179.389 155.389C182.96 155.389 173.684 152.608 173 152.389C150.576 145.191 124.972 144.62 101.611 143.056C74.4361 141.235 47.1713 141.368 20 142.5C15.6798 142.68 11.3953 143.045 7.16667 144C-0.0319595 145.625 4.35951 147.866 9.72222 150.611C24.5986 158.227 39.9416 164.425 56.5556 166.722C74.5522 169.21 92.5347 170.332 110.361 174C130.021 178.045 149.193 179.513 169.222 178.889C175.867 178.682 211.995 178.863 208.639 166.278C207.465 161.874 201.658 157.441 198.389 154.667C189.985 147.535 181.526 145.466 170.778 144.778C153.746 143.688 137.088 142 120 142C99.5896 142 79.3462 139.158 59.1111 136.722C50.9859 135.744 42.8791 135.127 34.6944 135.028C26.9733 134.934 17.2057 133.504 9.80555 136.222C-5.15697 141.719 17.2766 159.293 22.9444 162.111C37.1734 169.185 58.3953 167.944 74.0833 167.944C89.3218 167.944 103.522 164.852 118.75 167.5C119.315 167.598 123.321 168.032 121.556 168C111.423 167.816 101.935 164.585 91.6111 165.306C78.1602 166.244 61.9388 167.223 49.5 172.944C40.5144 177.078 32.7659 187.221 27.6667 195.333C16.1937 213.586 19.9967 233.28 31.1667 250.5C33.9799 254.837 28.6449 249.364 27.9444 248.611C24.4922 244.898 21.6076 240.489 19.5 235.889C14.531 225.043 11.9561 203.669 18.1944 192.806C24.0633 182.586 32.5131 171.519 44 167.611C60.9004 161.862 83.5645 163.197 99.7778 170.167C111.181 175.069 121.942 183.174 131.722 190.722C142.19 198.801 152.992 208.375 159.167 220.278C163.748 229.107 164.919 238.852 165.444 248.639C165.643 252.335 166.93 257.904 165.722 261.528C165.07 263.483 165.039 258.24 165.389 259.333C166.753 263.595 163.232 268.757 158.694 268.639C143.843 268.253 144.462 240.123 142.278 230.778C140.053 221.26 136.251 211.534 129.111 204.722C109.066 185.599 73.746 184.044 55.1389 206.306C49.5813 212.955 49.8345 225.19 52.6667 232.944C56.6002 243.715 64.9348 255.939 64.7778 267.667C64.6403 277.934 55.0299 285.802 46.25 278.694C37.1895 271.36 35.5546 261.274 30.2778 251.5C27.3328 246.045 25.792 241.074 24 235.25C23.2332 232.758 25.4998 240.296 26 241.278C29.9343 249.003 37 256.551 37 265.833C37 287.674 38 309.609 38 331.5C38 343.1 36.0332 356.708 38.5278 368.083C39.7811 373.798 43.8603 379.77 48.4444 383.389C52.6105 386.678 55.3105 381.544 57 378.278C66.1398 360.607 63.4537 343.602 59.7778 325.222C58.3994 318.33 56.825 312.118 63.2222 306.833C73.3209 298.491 75.5626 316.337 76.1667 322.056C76.9093 329.085 74.3957 354.682 84 356.889C89.3789 358.125 96.1514 351.116 99.1389 347.667C103.242 342.929 103.737 338.631 104.25 332.778C105.049 323.669 101.763 317.762 99.3333 309.278C98.1498 305.145 97.1243 299.21 98.5278 295C100.432 289.288 110.753 290.865 114.917 292.361C128.851 297.369 133.012 316.956 129.722 329.778C126.12 343.817 117.117 356.83 117.722 371.972C117.99 378.674 123.473 383.64 128.778 387C134.825 390.831 138.101 391.513 141 385C143.327 379.771 146.677 376.005 150.222 371.583C157 363.13 158.676 353.782 160.222 343.278C162.331 328.948 163.48 315.324 162.889 300.833C162.501 291.341 161.202 287.745 151.778 285.389C139.975 282.438 129.737 279.064 117.389 279C97.7754 278.899 78.3351 276.5 58.6667 276.5C54.9125 276.5 47.1718 274.699 45 278.5" stroke="black" stroke-width="3" stroke-linecap="round"/>
</svg>
